
              <svg xmlns="http://www.w3.org/2000/svg" width="25" height="24" viewBox="0 0 25 24" fill="none">
<path d="M12.959 1.6605C12.8259 1.55674 12.662 1.5004 12.4932 1.5004C12.3245 1.5004 12.1606 1.55674 12.0275 1.6605L1.25 10.0642L2.18225 11.2433L3.5 10.2158V19.5C3.50079 19.8976 3.65908 20.2787 3.94022 20.5598C4.22135 20.8409 4.60242 20.9992 5 21H20C20.3976 20.9992 20.7787 20.8409 21.0598 20.5598C21.3409 20.2787 21.4992 19.8976 21.5 19.5V10.2225L22.8177 11.25L23.75 10.071L12.959 1.6605ZM14 19.5H11V13.5H14V19.5ZM15.5 19.5V13.5C15.4996 13.1023 15.3414 12.721 15.0602 12.4398C14.779 12.1586 14.3977 12.0004 14 12H11C10.6023 12.0004 10.221 12.1586 9.93978 12.4398C9.65856 12.721 9.5004 13.1023 9.5 13.5V19.5H5V9.0465L12.5 3.204L20 9.054V19.5H15.5Z" fill="#1A1003" fill-opacity="0.5"/>
</svg>