<svg xmlns="http://www.w3.org/2000/svg" width="18" height="19" viewBox="0 0 18 19" fill="none">
<g clip-path="url(#clip0_23_37)">
<path d="M9.28114 5.03298C6.93173 5.03298 5.03668 6.92803 5.03668 9.27745C5.03668 11.6269 6.93173 13.5219 9.28114 13.5219C11.6306 13.5219 13.5256 11.6269 13.5256 9.27745C13.5256 6.92803 11.6306 5.03298 9.28114 5.03298ZM9.28114 12.0369C7.76289 12.0369 6.52169 10.7994 6.52169 9.27745C6.52169 7.7555 7.75919 6.51799 9.28114 6.51799C10.8031 6.51799 12.0406 7.7555 12.0406 9.27745C12.0406 10.7994 10.7994 12.0369 9.28114 12.0369ZM14.6892 4.85936C14.6892 5.40978 14.246 5.84937 13.6992 5.84937C13.1488 5.84937 12.7092 5.40608 12.7092 4.85936C12.7092 4.31264 13.1525 3.86936 13.6992 3.86936C14.246 3.86936 14.6892 4.31264 14.6892 4.85936ZM17.5004 5.86415C17.4376 4.53798 17.1347 3.36327 16.1632 2.39543C15.1953 1.42759 14.0206 1.12467 12.6944 1.05818C11.3277 0.980606 7.23094 0.980606 5.86414 1.05818C4.54167 1.12098 3.36696 1.42389 2.39543 2.39173C1.42389 3.35958 1.12467 4.53429 1.05818 5.86045C0.980606 7.22725 0.980606 11.324 1.05818 12.6908C1.12098 14.0169 1.42389 15.1916 2.39543 16.1595C3.36696 17.1273 4.53798 17.4302 5.86414 17.4967C7.23094 17.5743 11.3277 17.5743 12.6944 17.4967C14.0206 17.4339 15.1953 17.131 16.1632 16.1595C17.131 15.1916 17.4339 14.0169 17.5004 12.6908C17.578 11.324 17.578 7.23095 17.5004 5.86415ZM15.7347 14.1573C15.4465 14.8813 14.8887 15.4391 14.161 15.731C13.0712 16.1632 10.4854 16.0634 9.28114 16.0634C8.07688 16.0634 5.48735 16.1595 4.4013 15.731C3.67727 15.4428 3.11946 14.885 2.82763 14.1573C2.39543 13.0675 2.49517 10.4817 2.49517 9.27745C2.49517 8.07319 2.39912 5.48366 2.82763 4.39761C3.11577 3.67357 3.67357 3.11577 4.4013 2.82394C5.49105 2.39173 8.07688 2.49147 9.28114 2.49147C10.4854 2.49147 13.0749 2.39543 14.161 2.82394C14.885 3.11208 15.4428 3.66988 15.7347 4.39761C16.1669 5.48735 16.0671 8.07319 16.0671 9.27745C16.0671 10.4817 16.1669 13.0712 15.7347 14.1573Z" fill="url(#paint0_linear_23_37)"/>
</g>
<defs>
<linearGradient id="paint0_linear_23_37" x1="17.8223" y1="1.26092" x2="2.14458" y2="17.4793" gradientUnits="userSpaceOnUse">
<stop stop-color="#C8098D"/>
<stop offset="0.426146" stop-color="#CA0A71"/>
<stop offset="0.657207" stop-color="#EF2002"/>
<stop offset="1" stop-color="#F8A61C"/>
</linearGradient>
<clipPath id="clip0_23_37">
<rect width="17.4927" height="17.4927" fill="white" transform="translate(0.350586 0.671371)"/>
</clipPath>
</defs>
</svg>