<svg xmlns="http://www.w3.org/2000/svg" width="17" height="16" viewBox="0 0 17 16" fill="none">
<path d="M3.89189 1.80647C3.89167 2.24506 3.71723 2.6656 3.40695 2.97558C3.09666 3.28555 2.67595 3.45957 2.23736 3.45935C1.79876 3.45913 1.37822 3.28469 1.06825 2.97441C0.758273 2.66412 0.584254 2.24341 0.584473 1.80481C0.584692 1.36622 0.759132 0.945683 1.06942 0.635708C1.3797 0.325732 1.80042 0.151713 2.23901 0.151932C2.6776 0.152151 3.09814 0.326591 3.40812 0.636877C3.71809 0.947163 3.89211 1.36788 3.89189 1.80647ZM3.9415 4.68392H0.634084V15.0361H3.9415V4.68392ZM9.16723 4.68392H5.87634V15.0361H9.13415V9.60371C9.13415 6.57742 13.0783 6.29629 13.0783 9.60371V15.0361H16.3443V8.47919C16.3443 3.37749 10.5067 3.56767 9.13415 6.07304L9.16723 4.68392Z" fill="#0077B5"/>
</svg>