<svg xmlns="http://www.w3.org/2000/svg" width="17" height="15" viewBox="0 0 17 15" fill="none">
<path d="M16.9904 2.60559C16.3594 2.88473 15.6902 3.06811 15.0051 3.14966C15.727 2.71732 16.2671 2.03732 16.5248 1.23631C15.8468 1.63982 15.1035 1.9226 14.3295 2.07557C13.8091 1.51875 13.1193 1.14946 12.3674 1.02512C11.6154 0.900782 10.8435 1.02835 10.1715 1.388C9.49954 1.74765 8.96522 2.31923 8.65162 3.01388C8.33801 3.70853 8.26269 4.48733 8.43737 5.2292C7.06225 5.1604 5.71699 4.80314 4.48892 4.18063C3.26085 3.55812 2.17744 2.68428 1.30905 1.61584C1.0017 2.14375 0.840186 2.74386 0.841049 3.35472C0.841049 4.55366 1.4521 5.61286 2.379 6.233C1.82998 6.21568 1.29305 6.06742 0.812936 5.80055V5.84272C0.812911 6.64136 1.08913 7.41542 1.59475 8.03362C2.10037 8.65182 2.80426 9.07609 3.58703 9.23448C3.0774 9.37274 2.54296 9.3931 2.02428 9.29401C2.24498 9.98146 2.67519 10.5826 3.25464 11.0134C3.83408 11.4441 4.53375 11.6828 5.25563 11.696C4.53821 12.2595 3.71676 12.676 2.83824 12.9217C1.95973 13.1675 1.04139 13.2376 0.135742 13.1281C1.71646 14.1447 3.55653 14.6843 5.43588 14.6826C11.7977 14.6826 15.2755 9.41308 15.2755 4.84306C15.2755 4.69422 15.2721 4.54373 15.2655 4.39573C15.9422 3.90652 16.5263 3.29978 16.9904 2.60559Z" fill="#1DA1F2"/>
</svg>